<svg xmlns="http://www.w3.org/2000/svg" xmlns:svg="http://www.w3.org/2000/svg" id="svg5" width="100mm" height="100mm" version="1.1" viewBox="0 0 100 100"><defs id="defs2"><marker id="DistanceX" orient="auto" refX="0" refY="0" style="overflow:visible"><path style="stroke:#000;stroke-width:.5" id="path2434" d="M 3,-3 L -3,3 M 0,-5 L 0,5"/></marker><pattern id="Hatch" width="8" height="8" x="0" y="0" patternUnits="userSpaceOnUse"><path id="path2437" stroke="#000" stroke-width=".25" d="M8 4 l-4,4" linecap="square"/><path id="path2439" stroke="#000" stroke-width=".25" d="M6 2 l-4,4" linecap="square"/><path id="path2441" stroke="#000" stroke-width=".25" d="M4 0 l-4,4" linecap="square"/></pattern></defs><g id="g19"><rect style="fill:#fff;fill-opacity:1;stroke:none" id="rect17" width="100" height="100" x="0" y="0"/></g><g id="g21" style="display:inline"><path style="fill:#000;stroke-width:.0249419" id="path2713" d="m 48.363295,47.124855 c 0.173137,-0.946456 0.89897,-1.725017 1.829844,-1.962772 l 0.124924,-0.03191 0.01247,-0.398328 c 0.01225,-0.391409 0.01371,-0.399955 0.08395,-0.491945 0.181229,-0.237353 0.464218,-0.272652 0.678379,-0.08462 0.152493,0.133891 0.170224,0.191828 0.184792,0.603837 l 0.01314,0.371641 0.171904,0.04702 c 0.646375,0.176795 1.230046,0.658283 1.536382,1.267406 0.09883,0.19651 0.206994,0.513004 0.236548,0.692137 l 0.01749,0.106003 H 50.79737 48.341622 Z"/><path style="fill:#000;stroke-width:.0249419" id="path2752" d="m 50.617365,50.988689 c -0.1168,-0.05581 -0.222886,-0.162323 -0.260303,-0.261354 -0.01459,-0.03862 -0.02653,-0.220792 -0.02653,-0.404831 v -0.334617 l -0.06859,-0.01515 c -0.456351,-0.100783 -0.880875,-0.341247 -1.220669,-0.691426 -0.36627,-0.377465 -0.564587,-0.743494 -0.666659,-1.230436 l -0.03334,-0.15906 h 2.45373 c 1.349552,0 2.45373,0.0091 2.45373,0.02019 0,0.01111 -0.0235,0.113138 -0.05223,0.226738 -0.227974,0.901514 -0.899075,1.576785 -1.809791,1.821035 l -0.103619,0.02779 -0.0086,0.342632 c -0.0072,0.288158 -0.01691,0.358494 -0.06073,0.4424 -0.112114,0.214668 -0.389216,0.315068 -0.596384,0.216082 z"/></g><g id="g23" style="display:inline"><circle style="fill:purple;fill-rule:evenodd;stroke-width:.510416" id="path313" cx="50.8" cy="47.55" r="2.45"/></g></svg>