<svg xmlns="http://www.w3.org/2000/svg" xmlns:svg="http://www.w3.org/2000/svg" id="svg5" width="100mm" height="100mm" version="1.1" viewBox="0 0 100 100"><defs id="defs2"><marker id="DistanceX" orient="auto" refX="0" refY="0" style="overflow:visible"><path style="stroke:#000;stroke-width:.5" id="path22" d="M 3,-3 L -3,3 M 0,-5 L 0,5"/></marker><pattern id="Hatch" width="8" height="8" x="0" y="0" patternUnits="userSpaceOnUse"><path id="path25" stroke="#000" stroke-width=".25" d="M8 4 l-4,4" linecap="square"/><path id="path27" stroke="#000" stroke-width=".25" d="M6 2 l-4,4" linecap="square"/><path id="path29" stroke="#000" stroke-width=".25" d="M4 0 l-4,4" linecap="square"/></pattern></defs><g id="g19"><rect style="fill:#fff;fill-opacity:1;stroke:none" id="rect17" width="100" height="100" x="0" y="0"/></g><g id="g21" style="display:inline"><path style="fill:#000;stroke-width:.0173246" id="path600" d="m 48.982767,50.289288 v -2.51869 h 0.952375 0.952375 v -0.06473 c 0,-0.08146 0.07417,-0.227187 0.144819,-0.284554 0.304212,-0.247003 0.733203,-0.09814 0.798136,0.276958 l 0.01252,0.07233 h 0.897915 0.897916 v 2.518689 2.518688 H 53.356638 53.074453 V 50.561577 48.31518 H 52.333717 51.59298 v 2.246397 2.246398 H 51.310795 51.02861 V 50.561577 48.31518 h -0.749555 -0.749554 v 2.246397 2.246398 h -0.273367 -0.273367 z"/><path style="fill:#000;stroke-width:.0173247" id="path639" d="m 50.085053,54.32787 c -0.184141,-0.06386 -0.326277,-0.236097 -0.326277,-0.395364 v -0.06011 H 48.85931 47.959845 V 51.362201 48.852 h 0.273367 0.273367 v 2.237908 2.237907 h 0.749555 0.749554 V 51.089908 48.852 h 0.273367 0.273367 v 2.237908 2.237907 h 0.749555 0.749554 V 51.089908 48.852 h 0.282186 0.282185 v 2.510201 2.510198 h -0.952376 c -0.908932,0 -0.952375,0.0015 -0.952375,0.03095 0,0.08279 -0.05809,0.209192 -0.133195,0.289794 -0.124125,0.133218 -0.332804,0.190259 -0.492903,0.134734 z"/></g><g id="g23" style="display:inline"><rect style="fill:#000;stroke-width:.0239547" id="rect860" width="5.5" height="6" x="48.052" y="47.82"/></g></svg>